<?xml version="1.0" encoding="UTF-8"?>
<svg version="1.1" xmlns="http://www.w3.org/2000/svg" width="140" height="140">
<path d="M0 0 C1.37553291 -0.00642769 1.37553291 -0.00642769 2.77885437 -0.01298523 C4.70925068 -0.0186988 6.63966851 -0.01925087 8.57006836 -0.01489258 C11.49305748 -0.01173888 14.4150267 -0.03520768 17.33789062 -0.06054688 C40.25451317 -0.14071216 40.25451317 -0.14071216 49.38671875 6.36328125 C50.12277344 6.86988281 50.85882813 7.37648438 51.6171875 7.8984375 C52.13925781 8.36121094 52.66132812 8.82398438 53.19921875 9.30078125 C53.19921875 9.96078125 53.19921875 10.62078125 53.19921875 11.30078125 C53.79734375 11.55859375 54.39546875 11.81640625 55.01171875 12.08203125 C60.99933793 15.41799051 63.95876358 22.41814259 66.4375 28.515625 C68.67026736 36.67953849 68.38552375 45.22114922 68.38452148 53.62011719 C68.38670715 55.66492577 68.40492287 57.70919259 68.42382812 59.75390625 C68.4893471 74.39634389 66.15004684 85.28952728 58.01171875 97.61328125 C45.15019379 109.90318288 30.66020936 111.96929838 13.67797852 111.76733398 C11.00539551 111.73821235 8.33478559 111.74679978 5.66210938 111.75976562 C-2.86703762 111.7486052 -10.82393499 111.71617689 -18.80078125 108.30078125 C-19.83203125 107.86765625 -20.86328125 107.43453125 -21.92578125 106.98828125 C-25.7581361 104.73885558 -29.50866492 102.30045069 -32.80078125 99.30078125 C-32.80078125 98.64078125 -32.80078125 97.98078125 -32.80078125 97.30078125 C-33.46078125 97.30078125 -34.12078125 97.30078125 -34.80078125 97.30078125 C-36.203125 95.6484375 -36.203125 95.6484375 -37.73828125 93.36328125 C-38.49431641 92.26693359 -38.49431641 92.26693359 -39.265625 91.1484375 C-43.25495546 83.74838176 -44.2601899 76.85585893 -44.234375 68.52734375 C-44.23961685 67.52295258 -44.2448587 66.5185614 -44.2502594 65.48373413 C-44.2566477 63.37100137 -44.25538429 61.2582329 -44.24682617 59.14550781 C-44.23832271 55.9414022 -44.26711335 52.73908606 -44.29882812 49.53515625 C-44.30044078 47.47005261 -44.29986137 45.40494586 -44.296875 43.33984375 C-44.30810898 42.39678375 -44.31934296 41.45372375 -44.33091736 40.48208618 C-44.20564591 28.31549132 -39.51999166 19.11120266 -31.07421875 10.55078125 C-22.12083657 2.37417652 -11.8567116 -0.01249608 0 0 Z " fill="#85CE77" transform="translate(59.80078125,15.69921875)"/>
<path d="M0 0 C7.16084499 5.35877804 12.57853184 12.91133939 14.359375 21.765625 C15.37971537 31.93557491 13.18136515 41.26141429 7.234375 49.640625 C1.67768808 56.2108707 -5.3464185 59.80986355 -13.640625 61.765625 C-20.52153053 62.33841389 -27.18484391 62.6132961 -33.640625 59.953125 C-39.61014609 57.74852952 -44.83716835 60.4456213 -50.41796875 62.6640625 C-53.640625 63.765625 -53.640625 63.765625 -56.640625 62.765625 C-56.26808594 61.74082031 -55.89554688 60.71601562 -55.51171875 59.66015625 C-55.03321481 58.29970387 -54.55538562 56.93901404 -54.078125 55.578125 C-53.83126953 54.90458984 -53.58441406 54.23105469 -53.33007812 53.53710938 C-51.93985593 49.52308753 -51.32049804 46.82914079 -52.640625 42.765625 C-52.88941406 41.98703125 -53.13820312 41.2084375 -53.39453125 40.40625 C-53.66136719 39.61734375 -53.92820313 38.8284375 -54.203125 38.015625 C-57.03373114 28.58956713 -55.89852417 20.14567754 -51.421875 11.37890625 C-45.74893885 2.09735239 -37.96973845 -2.87115432 -27.671875 -5.79296875 C-17.82434387 -7.93291301 -8.31071799 -5.31679474 0 0 Z " fill="#98D68C" transform="translate(92.640625,42.234375)"/>
<path d="M0 0 C7.14830698 -0.45386076 11.69383601 0.69619707 18 4 C19.33287261 4.66758732 20.66606769 5.33453264 22 6 C22.33512233 22.92367791 21.43720779 35.73794249 11.8125 50.3125 C-1.04902496 62.60240163 -15.53900939 64.66851713 -32.52124023 64.46655273 C-35.19382324 64.4374311 -37.86443316 64.44601853 -40.53710938 64.45898438 C-49.06625637 64.44782395 -57.02315374 64.41539564 -65 61 C-66.03125 60.566875 -67.0625 60.13375 -68.125 59.6875 C-71.95735485 57.43807433 -75.70788367 54.99966944 -79 52 C-79 51.34 -79 50.68 -79 50 C-79.66 50 -80.32 50 -81 50 C-82.40234375 48.34765625 -82.40234375 48.34765625 -83.9375 46.0625 C-84.44152344 45.33160156 -84.94554687 44.60070312 -85.46484375 43.84765625 C-89.64986475 36.08460203 -90.41307332 29.17701999 -90.1875 20.4375 C-90.17396484 19.42880859 -90.16042969 18.42011719 -90.14648438 17.38085938 C-90.11149576 14.91999379 -90.06241158 12.46029665 -90 10 C-89.24847656 10.76957031 -88.49695313 11.53914063 -87.72265625 12.33203125 C-80.85592703 19.06083478 -74.49704986 20.9394961 -65 22 C-63.46078551 26.74667942 -64.78909116 30.3148832 -66.4375 34.8125 C-66.68048828 35.50537109 -66.92347656 36.19824219 -67.17382812 36.91210938 C-67.77169616 38.61193025 -68.38438482 40.30652572 -69 42 C-68.29875 41.80664062 -67.5975 41.61328125 -66.875 41.4140625 C-64.90183509 40.87251452 -62.92643044 40.33908135 -60.94921875 39.8125 C-59.21058266 39.33351151 -57.47889291 38.8247766 -55.76953125 38.25 C-51.14195704 36.77213199 -48.80434058 37.32722868 -44.4609375 39.25 C-34.80695225 42.19216693 -24.39881071 40.34410208 -15.66796875 35.78125 C-7.45905231 30.88040436 -2.92352181 23.86622133 -0.45703125 14.70703125 C0.36881607 9.81547403 0.22921151 4.94078143 0 0 Z " fill="#6BC45A" transform="translate(106,63)"/>
<path d="M0 0 C7.16084499 5.35877804 12.57853184 12.91133939 14.359375 21.765625 C15.37971537 31.93557491 13.18136515 41.26141429 7.234375 49.640625 C1.67768808 56.2108707 -5.3464185 59.80986355 -13.640625 61.765625 C-20.52153053 62.33841389 -27.18484391 62.6132961 -33.640625 59.953125 C-39.61014609 57.74852952 -44.83716835 60.4456213 -50.41796875 62.6640625 C-53.640625 63.765625 -53.640625 63.765625 -56.640625 62.765625 C-56.26808594 61.74082031 -55.89554688 60.71601562 -55.51171875 59.66015625 C-55.03321481 58.29970387 -54.55538562 56.93901404 -54.078125 55.578125 C-53.83126953 54.90458984 -53.58441406 54.23105469 -53.33007812 53.53710938 C-51.93985593 49.52308753 -51.32049804 46.82914079 -52.640625 42.765625 C-52.88941406 41.98703125 -53.13820312 41.2084375 -53.39453125 40.40625 C-53.66136719 39.61734375 -53.92820313 38.8284375 -54.203125 38.015625 C-57.03373114 28.58956713 -55.89852417 20.14567754 -51.421875 11.37890625 C-45.74893885 2.09735239 -37.96973845 -2.87115432 -27.671875 -5.79296875 C-17.82434387 -7.93291301 -8.31071799 -5.31679474 0 0 Z M-43.640625 9.765625 C-49.39058325 17.43701569 -50.55961933 24.21044037 -49.640625 33.765625 C-48.73821207 36.44632224 -47.63949261 38.94328912 -46.46875 41.515625 C-45.24157021 44.84984934 -45.77803968 47.38163645 -46.640625 50.765625 C-46.82625 51.735 -47.011875 52.704375 -47.203125 53.703125 C-47.3475 54.38375 -47.491875 55.064375 -47.640625 55.765625 C-46.465 55.415 -45.289375 55.064375 -44.078125 54.703125 C-38.78604607 53.38942231 -34.55307984 54.14039938 -29.390625 55.828125 C-20.75833807 57.98619673 -13.53746214 57.15899644 -5.4453125 53.44921875 C2.34562007 48.77248903 6.68512784 41.8537965 9.046875 33.265625 C10.18351705 24.17248861 7.89095482 17.22981157 2.93359375 9.65234375 C-2.0740912 3.65057742 -10.06685083 -0.39985428 -17.75390625 -1.55078125 C-27.91346449 -2.11018854 -36.96400568 2.27146045 -43.640625 9.765625 Z " fill="#F9FCF8" transform="translate(92.640625,42.234375)"/>
<path d="M0 0 C2.59236085 5.1847217 0.73240627 11.28034944 -0.953125 16.50390625 C-4.24536275 24.35368208 -9.95272357 29.76480187 -17.625 33.25 C-25.79794922 36.32244599 -32.79406891 35.66728155 -40.80078125 32.60546875 C-45.85306791 31.21451949 -51.04805422 32.70915571 -56 34 C-55.48640725 29.44351048 -54.7544871 25.25186514 -53 21 C-49.91134295 18.57520731 -46.79013787 17.83912413 -43 17 C-42.26652344 16.73574219 -41.53304687 16.47148438 -40.77734375 16.19921875 C-38.75 15.5 -38.75 15.5 -35 15 C-31.875 16.75 -31.875 16.75 -29 19 C-24.56686057 20.88644231 -20.80977537 21.53441949 -16 21 C-13.09282927 18.78136971 -12.16018357 17.48055071 -11 14 C-11.9075 13.71125 -12.815 13.4225 -13.75 13.125 C-16.32202908 12.23468224 -18.61346766 11.28505587 -21 10 C-21.28875 10.639375 -21.5775 11.27875 -21.875 11.9375 C-23 14 -23 14 -25 15 C-25.99 14.34 -26.98 13.68 -28 13 C-27 10 -27 10 -23.68359375 8.28125 C-22.2729035 7.67647816 -20.85725217 7.08318071 -19.4375 6.5 C-18.74591797 6.20480469 -18.05433594 5.90960938 -17.34179688 5.60546875 C-15.2362529 4.71458621 -13.12185231 3.85126752 -11 3 C-10.27184082 2.70738281 -9.54368164 2.41476563 -8.79345703 2.11328125 C-5.73081966 0.91878959 -3.3165344 0 0 0 Z " fill="#6EC55D" transform="translate(101,64)"/>
<path d="M0 0 C0.928125 0.103125 1.85625 0.20625 2.8125 0.3125 C6.06851751 8.34751094 6.06851751 8.34751094 5 12.375 C4.608125 13.014375 4.21625 13.65375 3.8125 14.3125 C7.03552975 19.14704463 10.63870318 21.06466109 15.8125 23.3125 C16.8025 21.9925 17.7925 20.6725 18.8125 19.3125 C22.48131155 20.01804068 25.51700534 21.58985506 28.8125 23.3125 C28.49556247 26.24417219 28.18024166 27.90232661 26.1875 30.125 C22.14848948 32.14450526 18.77814417 31.80065666 14.453125 30.7265625 C6.04887944 27.88164708 -0.03519547 22.06942821 -4.75 14.625 C-6.77625767 9.95579754 -6.9120408 7.16410428 -5.0625 2.4375 C-3.1875 0.3125 -3.1875 0.3125 0 0 Z " fill="#FBFDFA" transform="translate(61.1875,54.6875)"/>
</svg>
